<?xml version="1.0" encoding="UTF-8"?>
<svg xmlns="http://www.w3.org/2000/svg" xmlns:xlink="http://www.w3.org/1999/xlink" version="1.1" viewBox="0 0 500 500">
  <!-- Generator: Adobe Illustrator 29.2.1, SVG Export Plug-In . SVG Version: 2.1.0 Build 116)  -->
  <defs>
    <style>
      .st0 {
        fill: url(#linear-gradient2);
      }

      .st1 {
        fill: url(#linear-gradient1);
      }

      .st2 {
        fill: url(#linear-gradient9);
      }

      .st3 {
        fill: url(#linear-gradient3);
      }

      .st4 {
        fill: url(#linear-gradient6);
      }

      .st5 {
        fill: url(#linear-gradient8);
      }

      .st6 {
        fill: url(#linear-gradient7);
      }

      .st7 {
        fill: url(#linear-gradient5);
      }

      .st8 {
        fill: url(#linear-gradient4);
      }

      .st9 {
        fill: url(#linear-gradient10);
      }

      .st10 {
        fill: #5e465d;
      }

      .st11 {
        fill: url(#linear-gradient);
      }

      .st12 {
        fill: #1d1d1b;
      }

      .st13 {
        isolation: isolate;
      }

      .st14 {
        mix-blend-mode: multiply;
      }

      .st15 {
        fill: #706f6f;
        mix-blend-mode: screen;
      }

      .st16 {
        fill: #0036ff;
      }
    </style>
    <linearGradient id="linear-gradient" x1="-324.93" y1="457.51" x2="-273.15" y2="457.51" gradientTransform="translate(813.73 469.3) rotate(90)" gradientUnits="userSpaceOnUse">
      <stop offset="0" stop-color="#68595f"/>
      <stop offset=".02" stop-color="#896e80"/>
      <stop offset=".04" stop-color="#5e3b5b"/>
      <stop offset=".08" stop-color="#2b1d2a"/>
      <stop offset=".11" stop-color="#704a6a"/>
      <stop offset=".9" stop-color="#615060"/>
      <stop offset=".94" stop-color="#2b1d2a"/>
      <stop offset=".96" stop-color="#5e3b5b"/>
      <stop offset=".98" stop-color="#845675"/>
      <stop offset="1" stop-color="#5b4a5c"/>
    </linearGradient>
    <linearGradient id="linear-gradient1" x1="-324.92" y1="456.59" x2="-273.15" y2="456.59" gradientTransform="translate(813.73 469.3) rotate(90)" gradientUnits="userSpaceOnUse">
      <stop offset="0" stop-color="#676067"/>
      <stop offset=".06" stop-color="#654e63"/>
      <stop offset=".19" stop-color="#786f77"/>
      <stop offset=".81" stop-color="#786f77"/>
      <stop offset=".92" stop-color="#654e63"/>
      <stop offset="1" stop-color="#676067"/>
    </linearGradient>
    <linearGradient id="linear-gradient2" x1="-335.83" y1="912.21" x2="-303.03" y2="912.21" gradientTransform="translate(-767.1 469.3) rotate(90) scale(1 -1)" gradientUnits="userSpaceOnUse">
      <stop offset="0" stop-color="#68595f"/>
      <stop offset=".02" stop-color="#896e80"/>
      <stop offset=".04" stop-color="#5e3b5b"/>
      <stop offset=".08" stop-color="#2d1e2c"/>
      <stop offset=".11" stop-color="#704a6a"/>
      <stop offset=".9" stop-color="#615060"/>
      <stop offset=".94" stop-color="#2d1e2c"/>
      <stop offset=".96" stop-color="#5e3b5b"/>
      <stop offset=".98" stop-color="#845675"/>
      <stop offset="1" stop-color="#5b4a5c"/>
    </linearGradient>
    <linearGradient id="linear-gradient3" x1="-335.82" y1="911.68" x2="-303.03" y2="911.68" gradientTransform="translate(-767.1 469.3) rotate(90) scale(1 -1)" xlink:href="#linear-gradient1"/>
    <linearGradient id="linear-gradient4" x1="145.83" y1="166.28" x2="145.83" y2="133.48" gradientUnits="userSpaceOnUse">
      <stop offset="0" stop-color="#68595f"/>
      <stop offset=".05" stop-color="#2d1e2c"/>
      <stop offset=".52" stop-color="#5e3b5b"/>
      <stop offset=".96" stop-color="#2d1e2c"/>
      <stop offset="1" stop-color="#5b4a5c"/>
    </linearGradient>
    <linearGradient id="linear-gradient5" x1="-294.56" x2="-261.76" xlink:href="#linear-gradient2"/>
    <linearGradient id="linear-gradient6" x1="-294.56" y1="911.68" x2="-261.76" y2="911.68" gradientTransform="translate(-767.1 469.3) rotate(90) scale(1 -1)" xlink:href="#linear-gradient1"/>
    <linearGradient id="linear-gradient7" y1="207.55" y2="174.74" xlink:href="#linear-gradient4"/>
    <linearGradient id="linear-gradient8" x1="-366.82" x2="-349.99" xlink:href="#linear-gradient2"/>
    <linearGradient id="linear-gradient9" x1="-366.81" y1="911.68" x2="-349.98" y2="911.68" gradientTransform="translate(-767.1 469.3) rotate(90) scale(1 -1)" xlink:href="#linear-gradient1"/>
    <linearGradient id="linear-gradient10" y1="119.32" y2="102.49" xlink:href="#linear-gradient4"/>
  </defs>
  <g class="st13">
    <g id="Layer_1" class="st14">
      <rect class="st10" x="146.21" y="34.6" width="209.4" height="429.61" rx="33.57" ry="33.57"/>
      <path class="st15" d="M321.78,35.6h-141.74c-18.13,0-32.83,14.7-32.83,32.83v361.94c0,18.13,14.7,32.83,32.83,32.83h141.74c18.13,0,32.83-14.7,32.83-32.83V68.44c0-18.13-14.7-32.83-32.83-32.83ZM353.61,430.11c0,17.73-14.37,32.1-32.1,32.1h-141.21c-17.73,0-32.1-14.37-32.1-32.1V68.7c0-17.73,14.37-32.1,32.1-32.1h141.21c17.73,0,32.1,14.37,32.1,32.1v361.42Z"/>
      <rect class="st12" x="149.75" y="37.88" width="202.31" height="423.05" rx="30.87" ry="30.87"/>
      <path class="st16" d="M305,44.73h16.35c13.29,0,24.05,10.77,24.05,24.05v361.24c0,13.29-10.77,24.05-24.05,24.05h-140.89c-13.29,0-24.05-10.77-24.05-24.05V68.78c0-13.29,10.77-24.05,24.05-24.05h124.54Z"/>
      <g>
        <g>
          <rect class="st11" x="355.61" y="144.37" width="1.23" height="51.78"/>
          <path class="st1" d="M356.83,196.15v-51.77l.61.67c-.31,5.51-.29,44.92,0,50.42l-.61.67Z"/>
        </g>
        <g>
          <rect class="st0" x="144.76" y="133.47" width=".7" height="32.8"/>
          <path class="st3" d="M144.76,166.27v-32.79l-.35.43c.18,3.49.16,28.46,0,31.94l.35.43Z"/>
          <rect class="st8" x="145.46" y="133.48" width=".75" height="32.8"/>
        </g>
        <g>
          <rect class="st7" x="144.76" y="174.74" width=".7" height="32.8"/>
          <path class="st4" d="M144.76,207.54v-32.79l-.35.43c.18,3.49.16,28.46,0,31.94l.35.43Z"/>
          <rect class="st6" x="145.46" y="174.74" width=".75" height="32.8"/>
        </g>
        <g>
          <rect class="st5" x="144.76" y="102.48" width=".7" height="16.84"/>
          <path class="st2" d="M144.76,119.32v-16.83l-.35.4c.18,3.3.16,12.73,0,16.02l.35.4Z"/>
          <rect class="st9" x="145.46" y="102.49" width=".75" height="16.84"/>
        </g>
      </g>
    </g>
  </g>
</svg>