<?xml version="1.0" encoding="UTF-8"?>
<svg id="Layer_1" xmlns="http://www.w3.org/2000/svg" version="1.1" viewBox="0 0 1920 429.18">
  <!-- Generator: Adobe Illustrator 29.2.1, SVG Export Plug-In . SVG Version: 2.1.0 Build 116)  -->
  <rect x="685.63" y="0" width="87.11" height="418.55"/>
  <rect x="1192.52" y="0" width="87.11" height="418.55"/>
  <path d="M479.19,429.18c-91.62,0-166.14-74.52-166.14-166.14s74.52-166.14,166.14-166.14,166.14,74.52,166.14,166.14-74.52,166.14-166.14,166.14ZM479.19,184.01c-43.58,0-79.03,35.45-79.03,79.03s35.45,79.03,79.03,79.03,79.03-35.45,79.03-79.03-35.45-79.03-79.03-79.03Z"/>
  <path d="M1920,195.45v-87.11h-47.77V0h-87.11v108.34h-47.75v87.11h47.75v100c0,72.37,58.87,131.24,131.24,131.24v-87.11c-24.33,0-44.13-19.8-44.13-44.13v-100h47.77Z"/>
  <polygon points="1709.22 108.34 1661.47 108.34 1661.47 0 1574.36 0 1574.36 108.34 1526.59 108.34 1526.59 195.45 1574.36 195.45 1574.36 418.55 1661.47 418.55 1661.47 195.45 1709.22 195.45 1709.22 108.34"/>
  <path d="M979.19,96.9c-91.76,0-166.14,74.38-166.14,166.14s74.38,166.14,166.14,166.14c57.78,0,108.63-29.53,138.4-74.29l-68.64-33.02c-16.52,20.87-41.62,34.2-69.76,34.2-40.88,0-75.35-28.15-86.35-66.69h250.21c1.37-8.6,2.29-17.36,2.29-26.35,0-91.76-74.38-166.14-166.14-166.14ZM979.19,170.01c36.14,0,67.22,22.03,81.56,53.75h-163.13c14.35-31.72,45.43-53.75,81.56-53.75Z"/>
  <polygon points="1388.44 263.04 1505.31 107.53 1396.35 107.53 1279.46 263.04 1396.35 418.55 1505.31 418.55 1388.44 263.04"/>
  <rect x=".25" y="0" width="87.11" height="418.55"/>
  <polygon points="196.17 263.04 313.04 107.53 204.08 107.53 87.19 263.04 204.08 418.55 313.03 418.55 196.17 263.04"/>
</svg>